<mxfile host="app.diagrams.net" agent="Mozilla/5.0 (Windows NT 10.0; Win64; x64; rv:136.0) Gecko/20100101 Firefox/136.0" version="26.1.1">
  <diagram name="Page-1" id="XW25_Qr0gox8qkIDQo_x">
    <mxGraphModel dx="2206" dy="1203" grid="1" gridSize="10" guides="1" tooltips="1" connect="1" arrows="1" fold="1" page="1" pageScale="1" pageWidth="850" pageHeight="1100" math="0" shadow="0">
      <root>
        <mxCell id="0" />
        <mxCell id="1" parent="0" />
        <mxCell id="KNZ8NhDfGAsJustiehOf-44" value="" style="rounded=1;whiteSpace=wrap;html=1;fillColor=none;" vertex="1" parent="1">
          <mxGeometry x="130" y="80" width="212" height="210" as="geometry" />
        </mxCell>
        <mxCell id="KNZ8NhDfGAsJustiehOf-21" value="OMP Chat-Assistant: System-Context view" style="text;html=1;align=center;verticalAlign=middle;whiteSpace=wrap;rounded=0;fontSize=17;fontStyle=1" vertex="1" parent="1">
          <mxGeometry width="850" height="30" as="geometry" />
        </mxCell>
        <mxCell id="KNZ8NhDfGAsJustiehOf-22" value="Legend" style="swimlane;whiteSpace=wrap;html=1;" vertex="1" parent="1">
          <mxGeometry x="20" y="480" width="820" height="600" as="geometry" />
        </mxCell>
        <mxCell id="KNZ8NhDfGAsJustiehOf-23" value="System" style="rounded=0;whiteSpace=wrap;html=1;" vertex="1" parent="KNZ8NhDfGAsJustiehOf-22">
          <mxGeometry x="30" y="50" width="120" height="60" as="geometry" />
        </mxCell>
        <mxCell id="KNZ8NhDfGAsJustiehOf-24" value="Any system that is not developed by development team" style="text;html=1;align=left;verticalAlign=top;whiteSpace=wrap;rounded=0;" vertex="1" parent="KNZ8NhDfGAsJustiehOf-22">
          <mxGeometry x="170" y="50" width="620" height="60" as="geometry" />
        </mxCell>
        <mxCell id="KNZ8NhDfGAsJustiehOf-25" value="Systrm" style="rounded=0;whiteSpace=wrap;html=1;fillColor=#d5e8d4;strokeColor=#82b366;" vertex="1" parent="KNZ8NhDfGAsJustiehOf-22">
          <mxGeometry x="30" y="120" width="120" height="60" as="geometry" />
        </mxCell>
        <mxCell id="KNZ8NhDfGAsJustiehOf-26" value="Any system developed by the development team" style="text;html=1;align=left;verticalAlign=top;whiteSpace=wrap;rounded=0;" vertex="1" parent="KNZ8NhDfGAsJustiehOf-22">
          <mxGeometry x="170" y="120" width="620" height="60" as="geometry" />
        </mxCell>
        <mxCell id="KNZ8NhDfGAsJustiehOf-28" value="A database system developed by the team. This is a system, because it does not only include the database itself, but also surrounding infrastructure" style="text;html=1;align=left;verticalAlign=top;whiteSpace=wrap;rounded=0;" vertex="1" parent="KNZ8NhDfGAsJustiehOf-22">
          <mxGeometry x="170" y="200" width="620" height="60" as="geometry" />
        </mxCell>
        <mxCell id="KNZ8NhDfGAsJustiehOf-29" value="Database" style="shape=cylinder3;whiteSpace=wrap;html=1;boundedLbl=1;backgroundOutline=1;size=15;fillColor=#d5e8d4;strokeColor=#82b366;" vertex="1" parent="KNZ8NhDfGAsJustiehOf-22">
          <mxGeometry x="60" y="190" width="60" height="80" as="geometry" />
        </mxCell>
        <mxCell id="KNZ8NhDfGAsJustiehOf-31" value="Interaction. Source of the connection interacts with the end" style="text;html=1;align=left;verticalAlign=top;whiteSpace=wrap;rounded=0;" vertex="1" parent="KNZ8NhDfGAsJustiehOf-22">
          <mxGeometry x="170" y="290" width="620" height="60" as="geometry" />
        </mxCell>
        <mxCell id="KNZ8NhDfGAsJustiehOf-32" value="" style="endArrow=classic;html=1;rounded=0;" edge="1" parent="KNZ8NhDfGAsJustiehOf-22">
          <mxGeometry width="50" height="50" relative="1" as="geometry">
            <mxPoint x="60" y="340" as="sourcePoint" />
            <mxPoint x="110" y="290" as="targetPoint" />
          </mxGeometry>
        </mxCell>
        <mxCell id="KNZ8NhDfGAsJustiehOf-33" value="" style="endArrow=none;dashed=1;html=1;dashPattern=1 3;strokeWidth=2;rounded=0;" edge="1" parent="KNZ8NhDfGAsJustiehOf-22">
          <mxGeometry width="50" height="50" relative="1" as="geometry">
            <mxPoint x="60" y="410" as="sourcePoint" />
            <mxPoint x="110" y="360" as="targetPoint" />
          </mxGeometry>
        </mxCell>
        <mxCell id="KNZ8NhDfGAsJustiehOf-34" value="Communication. Connected systems interact with each other by exchanging queries or API calls" style="text;html=1;align=left;verticalAlign=top;whiteSpace=wrap;rounded=0;" vertex="1" parent="KNZ8NhDfGAsJustiehOf-22">
          <mxGeometry x="170" y="360" width="620" height="60" as="geometry" />
        </mxCell>
        <mxCell id="KNZ8NhDfGAsJustiehOf-35" value="Actor" style="shape=umlActor;verticalLabelPosition=bottom;verticalAlign=top;html=1;outlineConnect=0;" vertex="1" parent="KNZ8NhDfGAsJustiehOf-22">
          <mxGeometry x="75" y="420" width="25" height="50" as="geometry" />
        </mxCell>
        <mxCell id="KNZ8NhDfGAsJustiehOf-36" value="Any human being" style="text;html=1;align=left;verticalAlign=top;whiteSpace=wrap;rounded=0;" vertex="1" parent="KNZ8NhDfGAsJustiehOf-22">
          <mxGeometry x="170" y="430" width="620" height="60" as="geometry" />
        </mxCell>
        <mxCell id="KNZ8NhDfGAsJustiehOf-37" value="" style="rounded=1;whiteSpace=wrap;html=1;fillColor=none;" vertex="1" parent="KNZ8NhDfGAsJustiehOf-22">
          <mxGeometry x="30" y="530" width="120" height="60" as="geometry" />
        </mxCell>
        <mxCell id="KNZ8NhDfGAsJustiehOf-38" value="Subdomain" style="text;html=1;align=center;verticalAlign=middle;whiteSpace=wrap;rounded=0;" vertex="1" parent="KNZ8NhDfGAsJustiehOf-22">
          <mxGeometry x="60" y="501" width="60" height="30" as="geometry" />
        </mxCell>
        <mxCell id="KNZ8NhDfGAsJustiehOf-39" value="A designation of a subdomain. All systems belonging to a specific subdomain are within its bounds" style="text;html=1;align=left;verticalAlign=top;whiteSpace=wrap;rounded=0;" vertex="1" parent="KNZ8NhDfGAsJustiehOf-22">
          <mxGeometry x="170" y="520" width="620" height="60" as="geometry" />
        </mxCell>
        <mxCell id="KNZ8NhDfGAsJustiehOf-43" style="edgeStyle=orthogonalEdgeStyle;rounded=0;orthogonalLoop=1;jettySize=auto;html=1;entryX=0.5;entryY=0;entryDx=0;entryDy=0;" edge="1" parent="1" source="KNZ8NhDfGAsJustiehOf-41" target="KNZ8NhDfGAsJustiehOf-42">
          <mxGeometry relative="1" as="geometry" />
        </mxCell>
        <mxCell id="KNZ8NhDfGAsJustiehOf-41" value="User" style="shape=umlActor;verticalLabelPosition=bottom;verticalAlign=top;html=1;outlineConnect=0;" vertex="1" parent="1">
          <mxGeometry x="147" y="100" width="30" height="60" as="geometry" />
        </mxCell>
        <mxCell id="KNZ8NhDfGAsJustiehOf-49" style="edgeStyle=orthogonalEdgeStyle;rounded=0;orthogonalLoop=1;jettySize=auto;html=1;entryX=0;entryY=0.5;entryDx=0;entryDy=0;dashed=1;endArrow=none;startFill=0;" edge="1" parent="1" source="KNZ8NhDfGAsJustiehOf-42" target="KNZ8NhDfGAsJustiehOf-47">
          <mxGeometry relative="1" as="geometry" />
        </mxCell>
        <mxCell id="KNZ8NhDfGAsJustiehOf-42" value="Chat Assistant User-Facing Service" style="rounded=0;whiteSpace=wrap;html=1;" vertex="1" parent="1">
          <mxGeometry x="202" y="210" width="120" height="60" as="geometry" />
        </mxCell>
        <mxCell id="KNZ8NhDfGAsJustiehOf-45" value="Generic Subdomain" style="text;html=1;align=center;verticalAlign=middle;whiteSpace=wrap;rounded=0;" vertex="1" parent="1">
          <mxGeometry x="206" y="50" width="60" height="30" as="geometry" />
        </mxCell>
        <mxCell id="KNZ8NhDfGAsJustiehOf-47" value="Chat Assistant API System" style="rounded=0;whiteSpace=wrap;html=1;fillColor=#d5e8d4;strokeColor=#82b366;" vertex="1" parent="1">
          <mxGeometry x="312" y="350" width="120" height="60" as="geometry" />
        </mxCell>
        <mxCell id="KNZ8NhDfGAsJustiehOf-50" value="Database Administrator" style="shape=umlActor;verticalLabelPosition=bottom;verticalAlign=top;html=1;outlineConnect=0;" vertex="1" parent="1">
          <mxGeometry x="477" y="100" width="30" height="60" as="geometry" />
        </mxCell>
        <mxCell id="KNZ8NhDfGAsJustiehOf-53" style="edgeStyle=orthogonalEdgeStyle;rounded=0;orthogonalLoop=1;jettySize=auto;html=1;entryX=1;entryY=0.5;entryDx=0;entryDy=0;dashed=1;endArrow=none;startFill=0;" edge="1" parent="1" source="KNZ8NhDfGAsJustiehOf-51" target="KNZ8NhDfGAsJustiehOf-47">
          <mxGeometry relative="1" as="geometry" />
        </mxCell>
        <mxCell id="KNZ8NhDfGAsJustiehOf-51" value="Database" style="shape=cylinder3;whiteSpace=wrap;html=1;boundedLbl=1;backgroundOutline=1;size=15;fillColor=#d5e8d4;strokeColor=#82b366;" vertex="1" parent="1">
          <mxGeometry x="612" y="200" width="60" height="80" as="geometry" />
        </mxCell>
        <mxCell id="KNZ8NhDfGAsJustiehOf-52" style="edgeStyle=orthogonalEdgeStyle;rounded=0;orthogonalLoop=1;jettySize=auto;html=1;exitX=0.5;exitY=0.5;exitDx=0;exitDy=0;exitPerimeter=0;entryX=0.5;entryY=0;entryDx=0;entryDy=0;entryPerimeter=0;" edge="1" parent="1" source="KNZ8NhDfGAsJustiehOf-50" target="KNZ8NhDfGAsJustiehOf-51">
          <mxGeometry relative="1" as="geometry" />
        </mxCell>
        <mxCell id="KNZ8NhDfGAsJustiehOf-54" value="" style="rounded=1;whiteSpace=wrap;html=1;fillColor=none;" vertex="1" parent="1">
          <mxGeometry x="422" y="80" width="270" height="210" as="geometry" />
        </mxCell>
        <mxCell id="KNZ8NhDfGAsJustiehOf-55" value="Supporting Subdomain" style="text;html=1;align=center;verticalAlign=middle;whiteSpace=wrap;rounded=0;" vertex="1" parent="1">
          <mxGeometry x="527" y="50" width="60" height="30" as="geometry" />
        </mxCell>
        <mxCell id="KNZ8NhDfGAsJustiehOf-56" value="" style="rounded=1;whiteSpace=wrap;html=1;fillColor=none;" vertex="1" parent="1">
          <mxGeometry x="132" y="330" width="480" height="100" as="geometry" />
        </mxCell>
        <mxCell id="KNZ8NhDfGAsJustiehOf-57" value="Core Subdomain" style="text;html=1;align=center;verticalAlign=middle;whiteSpace=wrap;rounded=0;" vertex="1" parent="1">
          <mxGeometry x="342" y="300" width="60" height="30" as="geometry" />
        </mxCell>
      </root>
    </mxGraphModel>
  </diagram>
</mxfile>
